#Comment line ignore any data following # character 
#Hierarchical Translation and Rotation (.htr) file 
[Header]	
#Header keywords are followed by a single value 
FileType HTR		#Single word string
DataType HTRS		#Translation followed by rotation and scale data
FileVersion 1		#integer
NumSegments 14		#integer
NumFrames 5		#integer
DataFrameRate 30		#integer, data frame rate in this file
EulerRotationOrder ZYX
CalibrationUnits mm
RotationUnits Degrees
GlobalAxisofGravity Y
BoneLengthAxis Y
ScaleFactor 1.00
[SegmentNames&Hierarchy]
#CHILD	PARENT
MASTER GLOBAL
weapon MASTER
barrel_root weapon
middle_left_energyLow_part1 weapon
middle_left_energyLow_part2 weapon
middle_left_root weapon
middle_right_energyLow_part1 weapon
middle_top weapon
barrel1_top_root barrel_root
barrel2_top_root barrel_root
barrel3_top_root barrel_root
barrel1_top_back barrel1_top_root
barrel2_top_back barrel2_top_root
barrel3_top_back barrel3_top_root
[BasePosition]
#SegmentName Tx, Ty, Tz, Rx, Ry, Rz, BoneLength
MASTER 0.000000 0.000000 0.000000 -90.000000 0.000000 0.000000 10.000000 
weapon 0.000000 0.000000 0.000000 0.000000 0.000000 0.000000 10.000000 
barrel_root 0.000000 0.000000 0.000000 0.000000 0.000000 0.000000 10.000000 
middle_left_energyLow_part1 0.000000 0.000000 0.000000 0.000000 0.000000 0.000000 10.000000 
middle_left_energyLow_part2 0.000000 0.000000 0.000000 0.000000 0.000000 0.000000 10.000000 
middle_left_root 0.000000 0.000000 0.000000 0.000000 0.000000 0.000000 10.000000 
middle_right_energyLow_part1 0.000000 0.000000 0.000000 0.000000 0.000000 0.000000 10.000000 
middle_top 0.000000 0.000000 0.000000 0.000000 0.000000 0.000000 10.000000 
barrel1_top_root 0.000000 0.000000 0.000000 0.000000 0.000000 0.000000 10.000000 
barrel2_top_root 0.000000 0.000000 0.000000 0.000000 0.000000 0.000000 10.000000 
barrel3_top_root 0.000000 0.000000 0.000000 0.000000 0.000000 0.000000 10.000000 
barrel1_top_back 0.000000 0.000000 0.000000 0.000000 0.000000 0.000000 10.000000 
barrel2_top_back 0.000000 0.000000 0.000000 0.000000 0.000000 0.000000 10.000000 
barrel3_top_back 0.000000 0.000000 0.000000 0.000000 0.000000 0.000000 10.000000 
#Beginning of Data. Separated by tabs
#Fr	Tx	Ty	Tz	Rx	Ry	Rz	SF
[MASTER]
25 0.000000 0.000000 0.000000 0.000000 -0.000000 0.000000 0.000000
26 0.000000 0.000000 0.000000 0.000000 -0.000000 0.000000 0.000000
27 0.000000 0.000000 0.000000 0.000000 -0.000000 0.000000 0.000000
28 0.000000 0.000000 0.000000 0.000000 -0.000000 0.000000 0.000000
29 0.000000 0.000000 0.000000 0.000000 -0.000000 0.000000 0.000000
[weapon]
25 -0.000057 -104.980545 30.104980 0.000000 0.000000 -0.000020 109.211830
26 -0.000019 -104.980469 30.104521 0.000000 0.000000 -0.000020 109.211632
27 -0.000000 -104.980545 30.104675 0.000000 0.000000 -0.000020 109.211746
28 0.000038 -104.980385 30.104521 0.000000 0.000000 -0.000020 109.211555
29 0.000038 -104.980469 30.104597 0.000000 0.000000 -0.000020 109.211655
[barrel_root]
25 -0.000060 298.993286 -55.258579 0.001583 -5.673417 0.001583 304.056732
26 -0.000059 301.307312 -55.258572 0.001824 9.925192 0.001824 306.332520
27 -0.000058 303.621307 -55.258564 0.002224 26.305691 0.002224 308.608826
28 -0.000057 305.935364 -55.258556 0.002958 43.252567 0.002958 310.885742
29 -0.000032 308.080780 -55.258659 0.004616 60.539383 0.004616 312.997253
[middle_left_energyLow_part1]
25 -103.774040 -30.653229 68.215630 0.001404 -23.423422 0.001404 127.914207
26 -103.546654 -30.653152 69.983902 0.001392 -24.998770 0.001392 128.682846
27 -104.322487 -30.653000 71.343224 0.001351 -30.572941 0.001351 130.048615
28 -106.119461 -30.653229 72.436905 0.001297 -39.521694 0.001297 132.091125
29 -108.141380 -30.653152 72.885818 0.001270 -44.999374 0.001270 133.964615
[middle_left_energyLow_part2]
25 -135.632309 -31.339109 25.370617 0.004204 57.577984 0.004204 141.498871
26 -134.171646 -31.468048 29.766302 0.004538 60.024742 0.004538 140.990433
27 -132.830261 -31.586073 33.802628 0.004898 62.270821 0.004898 140.656235
28 -131.622253 -31.692884 37.437889 0.005277 64.298279 0.005277 140.465134
29 -130.561554 -31.786345 40.629639 0.005663 66.076942 0.005663 140.383255
[middle_left_root]
25 -154.261322 -30.653076 11.613766 0.005407 -64.930229 179.994598 157.705566
26 -154.820465 -30.653076 11.900405 0.005422 -65.000610 179.994583 158.273849
27 -144.031952 -30.653040 -1.283710 0.003461 -50.000309 179.996536 147.263245
28 -133.243378 -30.653000 -14.467899 0.002542 -34.999924 179.997467 137.487183
29 -133.243362 -30.652987 -14.467913 0.002542 -34.999905 179.997467 137.487167
[middle_right_energyLow_part1]
25 94.368706 -29.615326 68.215630 0.002138 -23.403797 179.997864 120.149460
26 94.141228 -29.615250 69.983902 0.002184 -25.002167 179.997818 120.985039
27 94.917091 -29.615021 71.343376 0.002368 -30.571243 179.997635 122.377205
28 96.713997 -29.615326 72.437057 0.002752 -39.519970 179.997253 124.409767
29 98.735985 -29.615326 72.885742 0.003067 -44.997627 179.996933 126.246559
[middle_top]
25 -3.220463 -56.152874 59.132381 3.508696 0.001608 0.001710 81.609772
26 -3.220482 -56.650543 59.132462 3.706624 0.001605 0.001713 81.953056
27 -3.220501 -55.470356 58.178711 3.904561 0.001602 0.001715 80.449326
28 -3.220520 -52.146839 55.542072 4.097558 0.001599 0.001718 76.253433
29 -3.220444 -47.003723 51.559158 4.285624 0.001597 0.001721 69.843163
[barrel1_top_root]
25 0.000081 96.240509 0.000132 0.000000 -0.000000 0.000000 96.240509
26 0.000081 96.240509 0.000132 0.000000 -0.000000 0.000000 96.240509
27 0.000081 96.240509 0.000132 0.000000 -0.000000 0.000000 96.240509
28 0.000081 96.240509 0.000132 0.000000 -0.000000 0.000000 96.240509
29 0.000081 96.240509 0.000132 0.000000 -0.000000 0.000000 96.240509
[barrel2_top_root]
25 -0.000009 124.139923 0.000132 0.001187 -72.739494 0.001187 124.139923
26 -0.000009 124.139923 0.000132 0.001182 -76.224739 0.001182 124.139923
27 -0.000009 124.139923 0.000132 0.001178 -80.584015 0.001178 124.139923
28 -0.000009 124.139923 0.000132 0.001174 -85.539284 0.001174 124.139923
29 -0.000009 124.139923 0.000132 -180.000000 -89.216400 -180.000000 124.139923
[barrel3_top_root]
25 0.000101 69.591400 0.000123 0.008879 74.808922 0.008879 69.591400
26 0.000101 69.591400 0.000123 0.014296 80.581886 0.014296 69.591400
27 0.000101 69.591400 0.000123 0.061752 87.821739 0.061752 69.591400
28 0.000101 69.591400 0.000123 179.977707 83.963860 179.977707 69.591400
29 0.000101 69.591400 0.000123 179.990829 75.259735 179.990829 69.591400
[barrel1_top_back]
25 -3.343935 98.041893 186.671844 -23.158033 0.001959 0.001293 210.878571
26 -3.343935 98.041893 186.671844 -24.544880 0.001975 0.001269 210.878571
27 -3.343935 98.041893 186.671844 -25.931719 0.001990 0.001245 210.878571
28 -3.343935 98.041893 186.671844 -27.288652 0.002004 0.001221 210.878571
29 -3.343935 98.041893 186.671844 -28.623966 0.002019 0.001198 210.878571
[barrel2_top_back]
25 3.886122 70.142326 185.630630 -11.794827 0.001821 0.001480 198.478668
26 3.886122 70.142326 185.630630 -12.506063 0.001831 0.001469 198.478668
27 3.886122 70.142326 185.630630 -13.203083 0.001840 0.001458 198.478668
28 3.886122 70.142326 185.630630 -13.900102 0.001848 0.001447 198.478668
29 3.886122 70.142326 185.630630 -14.577941 0.001857 0.001436 198.478668
[barrel3_top_back]
25 -0.050068 125.495209 180.152344 -17.201134 0.001889 0.001393 219.553894
26 -0.050068 125.495209 180.152344 -18.262390 0.001902 0.001375 219.553894
27 -0.050068 125.495209 180.152344 -19.323557 0.001915 0.001358 219.553894
28 -0.050068 125.495209 180.152344 -20.367889 0.001927 0.001340 219.553894
29 -0.050068 125.495209 180.152344 -21.403864 0.001939 0.001323 219.553894
